<svg width="30" height="31" viewBox="0 0 30 31" fill="none" xmlns="http://www.w3.org/2000/svg">
<path fill-rule="evenodd" clip-rule="evenodd" d="M21.125 4.9625H21.25C24.7018 4.9625 27.5 7.76072 27.5 11.2125V22.4625C27.5 25.9143 24.7018 28.7125 21.25 28.7125H8.75C7.0924 28.7125 5.50269 28.054 4.33058 26.8819C3.15848 25.7098 2.5 24.1201 2.5 22.4625V11.2125C2.5 7.76072 5.29822 4.9625 8.75 4.9625H8.875V2.6875C8.875 2.16973 9.29473 1.75 9.8125 1.75C10.3303 1.75 10.75 2.16973 10.75 2.6875V4.9625H19.25V2.6875C19.25 2.16973 19.6697 1.75 20.1875 1.75C20.7053 1.75 21.125 2.16973 21.125 2.6875V4.9625ZM9.375 12.575H20.625C21.1428 12.575 21.5625 12.1553 21.5625 11.6375C21.5625 11.1197 21.1428 10.7 20.625 10.7H9.375C8.85723 10.7 8.4375 11.1197 8.4375 11.6375C8.4375 12.1553 8.85723 12.575 9.375 12.575Z" fill="#FBBC04"/>
</svg>
